# xmcd
#
# Track frame offsets: 
#        150
#        10875
#        27487
#        38737
#        46537
#        73875
#        79725
#        96750
#        107025
#        120375
#        128887
#        137775
#
# Disc length: 2050 seconds
#
# Revision: 4
# Processed by: cddbd v1.5.2PL0 Copyright (c) Steve Scherf et al.
# Submitted via: ExactAudioCopyFreeDBPlugin 1.0
#
DISCID=9908000c
DTITLE=Mississippi John Hurt - Avalon Blues 1963
DYEAR=1963
DGENRE=Blues
TTITLE0=Avalon Blues
TTITLE1=Richland Woman Blues
TTITLE2=Spike Driver Blues
TTITLE3=Salty Dog
TTITLE4=Cow Hooking Blues
TTITLE5=Spanish Fandango
TTITLE6=Casey Jones
TTITLE7=Louis Collins
TTITLE8=Candy Man
TTITLE9=My Creole Belle
TTITLE10=Liza Jane (God's Unchanging Hand)
TTITLE11=Joe Turner Blues
EXTD=
EXTT0=
EXTT1=
EXTT2=
EXTT3=
EXTT4=
EXTT5=
EXTT6=
EXTT7=
EXTT8=
EXTT9=
EXTT10=
EXTT11=
PLAYORDER=
